<?xml version="1.0" encoding="UTF-8"?>
<svg version="1.1" xmlns="http://www.w3.org/2000/svg" width="299" height="106">
<path d="M0 0 C98.67 0 197.34 0 299 0 C299 34.98 299 69.96 299 106 C200.33 106 101.66 106 0 106 C0 71.02 0 36.04 0 0 Z " fill="#F5F6F6" transform="translate(0,0)"/>
<path d="M0 0 C0.33 0 0.66 0 1 0 C1 34.98 1 69.96 1 106 C-97.67 106 -196.34 106 -298 106 C-298 105.01 -298 104.02 -298 103 C-199.66 103 -101.32 103 0 103 C0 69.01 0 35.02 0 0 Z " fill="#080808" transform="translate(298,0)"/>
<path d="M0 0 C16.83 0 33.66 0 51 0 C51 7.92 51 15.84 51 24 C50.01 23.34 49.02 22.68 48 22 C48 15.73 48 9.46 48 3 C33.15 3 18.3 3 3 3 C3.11874905 16.07415996 3.11874905 16.07415996 3.27026367 29.14794922 C3.27902314 30.7835227 3.28666835 32.4191027 3.29296875 34.0546875 C3.30831665 34.90812744 3.32366455 35.76156738 3.33947754 36.64086914 C3.34057617 39.10107422 3.34057617 39.10107422 3 43 C2.01 43.66 1.02 44.32 0 45 C0 30.15 0 15.3 0 0 Z " fill="#22998B" transform="translate(29,21)"/>
<path d="M0 0 C0.66 0 1.32 0 2 0 C3.48046875 1.50390625 3.48046875 1.50390625 5.1875 3.5625 C8.60201725 7.58675247 12.21845349 11.32190005 16 15 C15.67 15.99 15.34 16.98 15 18 C10.71 13.71 6.42 9.42 2 5 C-1.30270772 6.65135386 -2.77396702 7.53487016 -5.19921875 10.0390625 C-5.76833984 10.61914062 -6.33746094 11.19921875 -6.92382812 11.796875 C-7.50583984 12.40015625 -8.08785156 13.0034375 -8.6875 13.625 C-10.77291061 15.77154642 -12.87312731 17.89389176 -15 20 C-15.33 20 -15.66 20 -16 20 C-16 17.36 -16 14.72 -16 12 C-17.32 12 -18.64 12 -20 12 C-19.87238281 12.81082031 -19.74476562 13.62164062 -19.61328125 14.45703125 C-18.83255231 23.16672167 -18.83255231 23.16672167 -21.07958984 26.6953125 C-24.03637135 30.18652832 -27.45238973 33.12620532 -31 36 C-31.99 35.67 -32.98 35.34 -34 35 C-33.08552154 33.91481889 -32.16829593 32.83195262 -31.25 31.75 C-30.73953125 31.14671875 -30.2290625 30.5434375 -29.703125 29.921875 C-28 28 -28 28 -25.84375 26.25 C-23.28014049 23.12152738 -23.3307162 20.13171548 -23.25 16.25 C-23.22035156 15.55261719 -23.19070312 14.85523438 -23.16015625 14.13671875 C-23.08981542 12.42509187 -23.04260054 10.71254185 -23 9 C-19.7 9 -16.4 9 -13 9 C-12.67 10.32 -12.34 11.64 -12 13 C-10.18443212 11.21135158 -8.37248378 9.41928379 -6.5625 7.625 C-6.04623047 7.11710937 -5.52996094 6.60921875 -4.99804688 6.0859375 C-2.142867 3.31431064 -2.142867 3.31431064 0 0 Z " fill="#0D0D0D" transform="translate(64,35)"/>
<path d="M0 0 C3.375 0.9375 3.375 0.9375 5.375 3.9375 C5.5703125 6.19921875 5.5703125 6.19921875 5.5 8.625 C5.48195313 9.43324219 5.46390625 10.24148437 5.4453125 11.07421875 C5.41050781 11.99654297 5.41050781 11.99654297 5.375 12.9375 C-2.68367347 13.55739796 -2.68367347 13.55739796 -6.1875 11.25 C-7.92914195 8.44822818 -8.27244805 7.17474025 -7.625 3.9375 C-5.28282147 0.37738863 -4.31279488 -0.07435853 0 0 Z " fill="#222222" transform="translate(116.625,58.0625)"/>
<path d="M0 0 C4.52451299 1.44399351 4.52451299 1.44399351 5.9375 3.9375 C5.8125 7.5 5.8125 7.5 4.9375 10.9375 C1.46826119 13.25032587 0.01544425 13.36228586 -4.0625 12.9375 C-5.9375 11.8125 -5.9375 11.8125 -7.0625 9.9375 C-7.60650387 6.28490261 -7.50024093 4.5941114 -5.4375 1.5 C-3.0625 -0.0625 -3.0625 -0.0625 0 0 Z " fill="#212121" transform="translate(176.0625,58.0625)"/>
<path d="M0 0 C0.99 0.33 1.98 0.66 3 1 C3.33 2.65 3.66 4.3 4 6 C4.66 6 5.32 6 6 6 C6.66 4.02 7.32 2.04 8 0 C8.66 0 9.32 0 10 0 C10.33 0.66 10.66 1.32 11 2 C12.32 1.67 13.64 1.34 15 1 C15.02687279 2.81242052 15.04633715 4.62495233 15.0625 6.4375 C15.07410156 7.44683594 15.08570312 8.45617187 15.09765625 9.49609375 C15 12 15 12 14 13 C12.33382885 13.04063832 10.66611905 13.042721 9 13 C8.67 12.01 8.34 11.02 8 10 C6.02 10.99 6.02 10.99 4 12 C3.3291288 10.3767313 2.66342971 8.75132422 2 7.125 C1.62875 6.22007813 1.2575 5.31515625 0.875 4.3828125 C0 2 0 2 0 0 Z " fill="#EFF4F4" transform="translate(58,58)"/>
<path d="M0 0 C0.66 0 1.32 0 2 0 C3.48046875 1.50390625 3.48046875 1.50390625 5.1875 3.5625 C8.60201725 7.58675247 12.21845349 11.32190005 16 15 C15.67 15.99 15.34 16.98 15 18 C10.71 13.71 6.42 9.42 2 5 C-1.84281736 6.92140868 -3.80431927 8.5926816 -6.75 11.625 C-7.54921875 12.44226562 -8.3484375 13.25953125 -9.171875 14.1015625 C-9.77515625 14.72804688 -10.3784375 15.35453125 -11 16 C-11.66 15.34 -12.32 14.68 -13 14 C-12.14535156 13.15695313 -11.29070313 12.31390625 -10.41015625 11.4453125 C-9.29413953 10.33867407 -8.17826128 9.23189598 -7.0625 8.125 C-6.49853516 7.56941406 -5.93457031 7.01382813 -5.35351562 6.44140625 C-2.30139972 3.5078429 -2.30139972 3.5078429 0 0 Z " fill="#0B0B0B" transform="translate(64,35)"/>
<path d="M0 0 C6 0 6 0 7.9375 1.1875 C9 3 9 3 8.6875 5.6875 C8.460625 6.450625 8.23375 7.21375 8 8 C6.35 8.33 4.7 8.66 3 9 C3 10.32 3 11.64 3 13 C2.01 13 1.02 13 0 13 C0 8.71 0 4.42 0 0 Z " fill="#3F3F3F" transform="translate(148,58)"/>
<path d="M0 0 C2.31 0.33 4.62 0.66 7 1 C7.59732819 3.76264289 8 6.16032769 8 9 C8.94978897 11.15028304 8.94978897 11.15028304 10 13 C6.20411134 12.45773019 4.52788007 10.79872437 2 8 C2 9.65 2 11.3 2 13 C1.34 13 0.68 13 0 13 C0 8.71 0 4.42 0 0 Z " fill="#5B5B5B" transform="translate(203,58)"/>
<path d="M0 0 C2.31 1.98 4.62 3.96 7 6 C7.33 4.02 7.66 2.04 8 0 C8.66 0 9.32 0 10 0 C10 3.96 10 7.92 10 12 C8.02 10.35 6.04 8.7 4 7 C3.67 8.98 3.34 10.96 3 13 C2.01 13 1.02 13 0 13 C0 8.71 0 4.42 0 0 Z " fill="#3B3B3B" transform="translate(91,58)"/>
<path d="M0 0 C6.875 0.875 6.875 0.875 8 2 C8.1875 4.4375 8.1875 4.4375 8 7 C7.34 7.66 6.68 8.32 6 9 C4.68 9 3.36 9 2 9 C2 10.32 2 11.64 2 13 C1.34 13 0.68 13 0 13 C0 8.71 0 4.42 0 0 Z " fill="#202020" transform="translate(184,58)"/>
<path d="M0 0 C1 1 1 1 1.0625 4.0625 C1.041875 5.031875 1.02125 6.00125 1 7 C-1.875 7.625 -1.875 7.625 -5 8 C-5.66 7.34 -6.32 6.68 -7 6 C-6.75 2.9375 -6.75 2.9375 -6 0 C-3.49749232 -1.25125384 -2.59701335 -0.83774624 0 0 Z " fill="#ECECEC" transform="translate(178,61)"/>
<path d="M0 0 C2.31 0 4.62 0 7 0 C7 0.66 7 1.32 7 2 C5.35 2 3.7 2 2 2 C2 2.99 2 3.98 2 5 C3.32 5 4.64 5 6 5 C6 5.66 6 6.32 6 7 C5.01 7 4.02 7 3 7 C3 8.32 3 9.64 3 11 C4.32 11 5.64 11 7 11 C7 11.66 7 12.32 7 13 C4.69 13 2.38 13 0 13 C0 8.71 0 4.42 0 0 Z " fill="#343434" transform="translate(194,58)"/>
<path d="M0 0 C2.31 0 4.62 0 7 0 C7 0.66 7 1.32 7 2 C5.35 2 3.7 2 2 2 C2 2.99 2 3.98 2 5 C3.32 5 4.64 5 6 5 C6 5.66 6 6.32 6 7 C5.01 7 4.02 7 3 7 C3 8.32 3 9.64 3 11 C4.32 11 5.64 11 7 11 C7 11.66 7 12.32 7 13 C4.69 13 2.38 13 0 13 C0 8.71 0 4.42 0 0 Z " fill="#343434" transform="translate(228,58)"/>
<path d="M0 0 C0.66 0 1.32 0 2 0 C2.33 3.3 2.66 6.6 3 10 C3.99 10 4.98 10 6 10 C6.33 6.7 6.66 3.4 7 0 C7.66 0 8.32 0 9 0 C9.05391993 1.79133978 9.09275571 3.58313899 9.125 5.375 C9.14820312 6.37273437 9.17140625 7.37046875 9.1953125 8.3984375 C9 11 9 11 7 13 C4.5 13.25 4.5 13.25 2 13 C0 11 0 11 -0.1953125 8.3984375 C-0.17210938 7.40070313 -0.14890625 6.40296875 -0.125 5.375 C-0.10695313 4.37210938 -0.08890625 3.36921875 -0.0703125 2.3359375 C-0.04710938 1.56507812 -0.02390625 0.79421875 0 0 Z " fill="#121212" transform="translate(80,58)"/>
<path d="M0 0 C0.66 0 1.32 0 2 0 C2.05391993 1.79133978 2.09275571 3.58313899 2.125 5.375 C2.14820313 6.37273437 2.17140625 7.37046875 2.1953125 8.3984375 C2 11 2 11 0 13 C-2.5 13.25 -2.5 13.25 -5 13 C-7 11 -7 11 -7.1953125 8.6171875 C-7.17210938 7.71226563 -7.14890625 6.80734375 -7.125 5.875 C-7.10695313 4.96492188 -7.08890625 4.05484375 -7.0703125 3.1171875 C-7.04710938 2.41851562 -7.02390625 1.71984375 -7 1 C-6.34 1 -5.68 1 -5 1 C-4.67 3.97 -4.34 6.94 -4 10 C-3.01 10 -2.02 10 -1 10 C-0.67 6.7 -0.34 3.4 0 0 Z " fill="#0F0F0F" transform="translate(131,58)"/>
<path d="M0 0 C1.65 0 3.3 0 5 0 C5.33 0.66 5.66 1.32 6 2 C4.68 2 3.36 2 2 2 C2 3.32 2 4.64 2 6 C3.65 6 5.3 6 7 6 C7.66 8.31 8.32 10.62 9 13 C6.11562221 11.70700306 4.12780579 10.34058637 2 8 C2 9.65 2 11.3 2 13 C1.34 13 0.68 13 0 13 C0 8.71 0 4.42 0 0 Z " fill="#131313" transform="translate(159,58)"/>
<path d="M0 0 C1.9375 0.8125 1.9375 0.8125 3.9375 2.8125 C3.9375 4.1325 3.9375 5.4525 3.9375 6.8125 C2.9475 6.8125 1.9575 6.8125 0.9375 6.8125 C0.9375 7.4725 0.9375 8.1325 0.9375 8.8125 C-0.7125 8.4825 -2.3625 8.1525 -4.0625 7.8125 C-4.75 5.5 -4.75 5.5 -5.0625 2.8125 C-3.54188901 0.41153528 -2.87462184 -0.26132926 0 0 Z " fill="#E5E5E5" transform="translate(116.0625,60.1875)"/>
<path d="M0 0 C2.97 0 5.94 0 9 0 C9 0.66 9 1.32 9 2 C8.01 2 7.02 2 6 2 C6 5.63 6 9.26 6 13 C5.01 13 4.02 13 3 13 C3 9.7 3 6.4 3 3 C2.01 3 1.02 3 0 3 C0 2.01 0 1.02 0 0 Z " fill="#3F3F3F" transform="translate(212,58)"/>
<path d="M0 0 C0.99 0.33 1.98 0.66 3 1 C3.33 2.65 3.66 4.3 4 6 C4.66 6 5.32 6 6 6 C6.66 4.02 7.32 2.04 8 0 C8.66 0 9.32 0 10 0 C8.66666667 4 7.33333333 8 6 12 C5.34 12 4.68 12 4 12 C3.3291288 10.3767313 2.66342971 8.75132422 2 7.125 C1.62875 6.22007813 1.2575 5.31515625 0.875 4.3828125 C0 2 0 2 0 0 Z " fill="#37A295" transform="translate(58,58)"/>
<path d="M0 0 C3.3 0 6.6 0 10 0 C10.33 2.64 10.66 5.28 11 8 C9.68 8.99 8.36 9.98 7 11 C7 8.36 7 5.72 7 3 C6.030625 2.87625 5.06125 2.7525 4.0625 2.625 C3.051875 2.41875 2.04125 2.2125 1 2 C0.67 1.34 0.34 0.68 0 0 Z " fill="#232323" transform="translate(41,44)"/>
<path d="M0 0 C1.67542976 0.28604898 3.34385343 0.61781233 5 1 C4.34 1.66 3.68 2.32 3 3 C2.01 2.67 1.02 2.34 0 2 C0 2.99 0 3.98 0 5 C2.475 5.99 2.475 5.99 5 7 C5.042721 8.66611905 5.04063832 10.33382885 5 12 C4 13 4 13 1.4375 13.0625 C0.633125 13.041875 -0.17125 13.02125 -1 13 C-1 12.01 -1 11.02 -1 10 C0.98 10.495 0.98 10.495 3 11 C3 10.01 3 9.02 3 8 C0.525 7.01 0.525 7.01 -2 6 C-1.125 1.125 -1.125 1.125 0 0 Z " fill="#131313" transform="translate(239,58)"/>
<path d="M0 0 C1.66611905 -0.042721 3.33382885 -0.04063832 5 0 C6 1 6 1 6.09765625 2.84765625 C6.06510417 4.8984375 6.03255208 6.94921875 6 9 C4.35 9 2.7 9 1 9 C1 7.68 1 6.36 1 5 C1.99 5 2.98 5 4 5 C4 4.34 4 3.68 4 3 C2.68 3 1.36 3 0 3 C0 2.01 0 1.02 0 0 Z " fill="#DEDEDE" transform="translate(196,60)"/>
<path d="M0 0 C1.98 0 3.96 0 6 0 C6.59732819 2.76264289 7 5.16032769 7 8 C7.94978897 10.15028304 7.94978897 10.15028304 9 12 C7.125 11.6875 7.125 11.6875 5 11 C3 8 3 8 3.375 4.8125 C3.58125 3.884375 3.7875 2.95625 4 2 C3.01 1.67 2.02 1.34 1 1 C0.67 2.32 0.34 3.64 0 5 C0 3.35 0 1.7 0 0 Z " fill="#161616" transform="translate(204,59)"/>
<path d="M0 0 C0.99 0 1.98 0 3 0 C3 4.29 3 8.58 3 13 C2.01 13 1.02 13 0 13 C0 8.71 0 4.42 0 0 Z " fill="#3C3C3C" transform="translate(104,58)"/>
<path d="M0 0 C1.98 0 3.96 0 6 0 C4.68 0.33 3.36 0.66 2 1 C2 1.99 2 2.98 2 4 C2.99 4.33 3.98 4.66 5 5 C4.01 5 3.02 5 2 5 C2 6.65 2 8.3 2 10 C3.32 10 4.64 10 6 10 C6 10.66 6 11.32 6 12 C4.02 12 2.04 12 0 12 C0 8.04 0 4.08 0 0 Z " fill="#0C0C0C" transform="translate(136,59)"/>
<path d="M0 0 C0.66 0 1.32 0 2 0 C2 2.97 2 5.94 2 9 C-0.97 9 -3.94 9 -7 9 C-6.67 8.34 -6.34 7.68 -6 7 C-5.01 7 -4.02 7 -3 7 C-3.66 5.68 -4.32 4.36 -5 3 C-2.525 3.99 -2.525 3.99 0 5 C0 3.35 0 1.7 0 0 Z " fill="#0E0E0E" transform="translate(120,62)"/>
<path d="M0 0 C0.66 0 1.32 0 2 0 C2.66 1.65 3.32 3.3 4 5 C6.64 4.67 9.28 4.34 12 4 C11 7 11 7 9 8 C3.71076012 8.45014808 3.71076012 8.45014808 1.125 6.8125 C-0.34781139 4.43963721 -0.22223194 2.74086056 0 0 Z " fill="#101010" transform="translate(169,63)"/>
<path d="M0 0 C1.65 0 3.3 0 5 0 C5.6875 1.8125 5.6875 1.8125 6 4 C4.5625 5.75 4.5625 5.75 3 7 C2.01 6.67 1.02 6.34 0 6 C0 4.02 0 2.04 0 0 Z " fill="#757575" transform="translate(151,60)"/>
<path d="M0 0 C0.66 0 1.32 0 2 0 C2.02687279 1.81242052 2.04633715 3.62495233 2.0625 5.4375 C2.07410156 6.44683594 2.08570312 7.45617187 2.09765625 8.49609375 C2 11 2 11 1 12 C-0.66617115 12.04063832 -2.33388095 12.042721 -4 12 C-4 11.34 -4 10.68 -4 10 C-2.68 10 -1.36 10 0 10 C0 6.7 0 3.4 0 0 Z " fill="#21998A" transform="translate(71,59)"/>
<path d="M0 0 C0.66 0 1.32 0 2 0 C2 3.96 2 7.92 2 12 C0.35 10.35 -1.3 8.7 -3 7 C-2.01 7 -1.02 7 0 7 C0 4.69 0 2.38 0 0 Z " fill="#1B1B1B" transform="translate(99,58)"/>
<path d="M0 0 C2.97 0.495 2.97 0.495 6 1 C6 2.66666667 6 4.33333333 6 6 C4.35 5.67 2.7 5.34 1 5 C0.67 3.35 0.34 1.7 0 0 Z " fill="#DBDBDB" transform="translate(111,63)"/>
<path d="M0 0 C1.65 0 3.3 0 5 0 C5.33 1.32 5.66 2.64 6 4 C4.02 4 2.04 4 0 4 C0 2.68 0 1.36 0 0 Z " fill="#898989" transform="translate(161,60)"/>
<path d="M0 0 C1.66611905 -0.042721 3.33382885 -0.04063832 5 0 C6 1 6 1 6.125 3.5 C6 6 6 6 5 7 C3.33382885 7.04063832 1.66611905 7.042721 0 7 C0.99 6.34 1.98 5.68 3 5 C3 4.01 3 3.02 3 2 C2.01 1.34 1.02 0.68 0 0 Z " fill="#080808" transform="translate(186,59)"/>
<path d="M0 0 C0.66 0 1.32 0 2 0 C2.33 1.98 2.66 3.96 3 6 C3.66 6 4.32 6 5 6 C5 6.66 5 7.32 5 8 C3.68 7.67 2.36 7.34 1 7 C0.67 4.69 0.34 2.38 0 0 Z " fill="#1B1B1B" transform="translate(109,62)"/>
<path d="M0 0 C0.99 0.33 1.98 0.66 3 1 C3.33 3.64 3.66 6.28 4 9 C1.49701566 6.06171403 0.53069061 3.82097239 0 0 Z " fill="#2C9D8F" transform="translate(58,58)"/>
<path d="M0 0 C1.32 0.33 2.64 0.66 4 1 C3.67 2.32 3.34 3.64 3 5 C2.01 5 1.02 5 0 5 C0 3.35 0 1.7 0 0 Z " fill="#D9D9D9" transform="translate(186,60)"/>
</svg>
